<?xml version="1.0" standalone="no"?>
<!DOCTYPE svg PUBLIC "-//W3C//DTD SVG 20010904//EN"
 "http://www.w3.org/TR/2001/REC-SVG-20010904/DTD/svg10.dtd">
<svg version="1.0" xmlns="http://www.w3.org/2000/svg"
 width="932.000000pt" height="932.000000pt" viewBox="0 0 932.000000 932.000000"
 preserveAspectRatio="xMidYMid meet">
<metadata>
Created by potrace 1.11, written by Peter Selinger 2001-2013
</metadata>
<g transform="translate(0.000000,932.000000) scale(0.100000,-0.100000)"
fill="#000000" stroke="none">
<path d="M491 5487 l0 -2418 1077 2 c592 0 1081 3 1086 6 5 3 27 7 50 9 41 3
104 10 164 19 27 4 34 1 41 -18 5 -12 21 -49 37 -82 15 -33 28 -63 28 -67 1
-4 33 -55 72 -115 72 -107 203 -253 279 -309 22 -16 42 -32 45 -36 7 -9 79
-58 86 -58 3 0 10 -5 17 -10 16 -14 130 -81 142 -85 6 -1 45 -18 87 -39 42
-20 83 -36 90 -36 8 0 18 -4 24 -9 8 -9 190 -64 244 -75 14 -2 50 -10 80 -16
30 -6 66 -12 80 -14 14 -3 45 -8 70 -12 130 -21 420 -31 590 -20 78 5 214 18
235 22 11 3 35 7 54 10 18 3 43 8 55 10 11 2 36 7 55 10 48 8 240 63 276 79
16 7 53 21 80 31 28 9 55 22 62 27 7 5 16 7 20 4 4 -3 8 -309 7 -680 l0 -675
360 1 361 0 0 1036 c0 570 3 1061 8 1091 4 30 13 57 18 61 6 3 10 9 9 13 -1 3
4 30 9 59 17 82 21 99 27 146 7 48 29 118 43 135 5 6 18 27 29 48 25 45 44 69
102 128 202 209 470 281 835 226 37 -6 130 -38 170 -60 17 -9 35 -16 42 -16 6
0 13 -3 15 -7 2 -5 22 -21 46 -37 39 -26 67 -55 130 -129 12 -15 22 -29 22
-32 0 -2 12 -26 28 -52 28 -49 51 -111 73 -193 13 -49 15 -63 26 -160 4 -36 7
-558 7 -1161 l0 -1096 362 0 362 0 -2 1231 c-2 677 -6 1242 -9 1256 -3 14 -8
48 -11 75 -3 28 -5 50 -6 50 -1 0 -3 7 -5 15 -36 175 -139 411 -220 507 -5 7
-21 26 -35 43 -66 81 -224 222 -238 212 -3 -2 -8 1 -11 6 -19 30 -253 131
-337 145 -16 3 -49 10 -74 15 -176 40 -450 33 -650 -15 -145 -35 -300 -105
-409 -186 -108 -80 -274 -269 -296 -336 -9 -30 -17 -20 -45 59 l-23 65 1 790
c2 964 2 907 -2 914 -3 4 -7 33 -10 66 -4 33 -9 68 -12 77 -3 9 -7 26 -9 37
-3 12 -7 30 -10 41 -7 35 -29 94 -37 104 -4 6 -8 17 -8 27 0 16 -72 163 -113
231 -61 100 -211 263 -317 345 -82 64 -205 139 -295 182 -61 29 -211 89 -240
95 -5 2 -30 8 -55 15 -25 7 -46 13 -47 13 -2 -1 -17 4 -35 9 -36 10 -183 37
-263 47 -65 9 -524 8 -595 -1 -51 -7 -95 -13 -145 -23 -40 -7 -120 -25 -130
-28 -5 -1 -28 -6 -50 -11 -22 -4 -55 -14 -72 -22 -18 -7 -33 -10 -33 -7 0 4
-6 2 -12 -4 -25 -20 -128 -51 -129 -39 0 7 -2 19 -4 27 -2 8 -7 28 -10 43 -16
80 -115 301 -153 343 -9 11 -29 35 -44 55 -24 33 -149 161 -180 184 -58 45
-154 107 -204 130 -32 16 -62 33 -65 38 -3 5 -9 8 -13 8 -3 -1 -8 0 -11 0 -3
1 -8 2 -12 3 -5 1 -26 10 -48 20 -53 24 -225 71 -295 82 -14 2 -34 5 -45 8
-73 15 -317 19 -1222 20 l-1022 2 0 -2419z m1904 1799 c80 -11 110 -15 135
-21 14 -3 36 -8 50 -10 36 -6 105 -32 153 -57 23 -12 44 -22 47 -23 13 -1 69
-46 130 -105 105 -101 160 -217 176 -370 6 -55 5 -202 -1 -230 -3 -14 -10 -47
-15 -74 -12 -58 -68 -176 -108 -225 -45 -57 -134 -141 -148 -141 -8 0 -14 -4
-14 -10 0 -5 -5 -10 -12 -10 -6 0 -19 -6 -27 -14 -17 -14 -136 -67 -186 -82
-199 -60 -269 -65 -862 -67 l-472 -2 1 47 c0 26 -3 52 -7 57 -3 6 -1 11 6 11
9 0 9 3 0 14 -7 9 -8 17 -3 20 6 3 7 20 2 40 -4 19 -5 37 -3 40 3 3 4 53 3
113 0 59 -1 115 -1 123 0 8 0 62 0 120 0 58 0 112 0 120 0 8 0 62 0 120 0 58
0 112 0 120 0 8 0 62 0 120 0 58 0 112 0 120 0 8 1 68 1 134 0 65 2 122 4 125
5 8 1094 5 1151 -3z m2481 -841 c19 -3 51 -7 72 -10 20 -3 43 -8 51 -11 8 -2
30 -7 50 -10 20 -3 41 -10 47 -15 6 -5 19 -10 30 -12 50 -10 196 -82 255 -127
83 -62 189 -169 189 -190 0 -5 5 -10 10 -10 6 0 10 -5 10 -11 0 -6 9 -22 20
-36 17 -22 78 -166 85 -203 2 -8 4 -15 5 -15 1 0 3 -13 5 -30 2 -16 7 -43 10
-60 6 -33 12 -974 6 -980 -2 -2 -26 5 -55 16 -68 26 -197 70 -219 74 -9 2 -21
6 -25 9 -5 3 -19 7 -33 10 -13 3 -51 13 -84 22 -33 9 -68 18 -78 20 -10 2 -26
5 -35 8 -9 3 -28 8 -42 10 -14 3 -45 10 -70 16 -25 6 -56 12 -70 14 -66 12
-94 17 -99 20 -3 2 -22 7 -41 10 -58 10 -90 16 -210 42 -63 14 -123 27 -132
29 -172 37 -468 144 -490 179 -4 6 -8 7 -8 3 0 -23 -172 125 -227 196 -21 26
-73 133 -73 149 0 8 -3 18 -7 22 -26 26 -26 256 0 341 24 76 31 95 39 95 4 0
8 3 7 8 -2 14 13 52 21 52 5 0 11 8 14 18 9 28 156 172 176 172 5 0 10 4 10 8
0 14 177 99 255 124 76 23 87 26 125 33 14 2 25 4 25 5 0 4 46 10 120 16 44 3
81 7 83 9 4 4 244 -4 278 -10z m-2411 -1179 c336 -37 574 -145 708 -321 69
-92 106 -181 134 -325 12 -64 5 -273 -12 -330 -2 -8 -6 -26 -9 -40 -14 -77
-86 -218 -136 -269 -17 -16 -30 -34 -30 -40 0 -6 -6 -11 -12 -11 -7 0 -26 -14
-42 -30 -16 -16 -37 -32 -47 -35 -11 -4 -19 -10 -19 -15 0 -5 -16 -14 -35 -21
-19 -7 -35 -17 -35 -21 0 -4 -3 -7 -7 -6 -5 1 -29 -8 -55 -20 -43 -19 -168
-59 -207 -67 -9 -1 -41 -6 -71 -10 -30 -4 -66 -10 -80 -13 -14 -2 -305 -6
-646 -7 l-621 -3 -3 56 c-2 54 -1 65 1 95 1 6 1 28 0 47 -2 56 -3 154 -2 168
2 29 3 39 2 77 0 22 0 51 0 65 1 14 1 36 0 50 -1 22 -2 142 -2 180 0 8 1 44 0
80 0 36 0 72 0 80 1 8 1 44 0 80 0 36 0 72 0 80 1 8 1 44 0 80 0 36 0 72 0 80
1 8 1 44 0 80 0 36 0 72 1 80 0 8 0 60 0 115 l0 101 587 -2 c324 -1 611 -5
638 -8z m1690 -872 c11 -3 30 -7 42 -10 12 -2 34 -9 48 -14 14 -5 25 -7 25 -5
0 2 11 0 24 -5 13 -5 43 -12 67 -15 24 -4 47 -9 52 -12 4 -3 18 -6 30 -8 20
-3 174 -34 277 -57 25 -5 54 -11 65 -13 100 -18 284 -65 393 -101 84 -28 285
-121 290 -135 2 -5 8 -9 14 -9 5 0 16 -6 24 -12 8 -7 38 -33 67 -58 54 -46 97
-99 131 -160 17 -31 19 -59 20 -280 1 -147 -2 -257 -9 -275 -30 -87 -156 -227
-270 -300 -113 -72 -237 -124 -357 -150 -13 -2 -36 -8 -53 -12 -16 -3 -39 -8
-50 -9 -145 -15 -196 -18 -285 -17 -118 2 -254 13 -315 27 -11 2 -39 9 -62 14
-23 5 -44 7 -48 4 -3 -3 -5 0 -5 7 0 7 -4 10 -8 7 -13 -8 -207 63 -238 86 -7
5 -31 19 -55 31 -140 71 -290 229 -350 367 -6 14 -15 32 -19 40 -15 31 -22 80
-11 80 27 0 192 164 253 250 59 84 102 159 129 225 29 72 57 155 52 155 -3 0
0 7 7 15 7 9 10 18 7 21 -3 3 1 23 8 44 15 43 28 147 29 238 l1 63 30 -6 c17
-3 39 -8 50 -11z"/>
</g>
</svg>
