<svg xmlns="http://www.w3.org/2000/svg" xmlns:xlink="http://www.w3.org/1999/xlink" xmlns:sketch="http://www.bohemiancoding.com/sketch/ns" viewBox="0 0 50 61.25" version="1.1" x="0px" y="0px"><title>sun</title><description>Created with Sketch (http://www.bohemiancoding.com/sketch)</description><defs><filter x="-20%" y="-20%" width="140%" height="140%" filterUnits="objectBoundingBox" id="a"><feOffset dx="0" dy="1" in="SourceAlpha" result="shadowOffsetInner1"/><feGaussianBlur stdDeviation="1.5" in="shadowOffsetInner1" result="shadowBlurInner1"/><feComposite in="shadowBlurInner1" in2="SourceAlpha" operator="arithmetic" k2="-1" k3="1" result="shadowInnerInner1"/><feColorMatrix values="0 0 0 0 0   0 0 0 0 0   0 0 0 0 0  0 0 0 0.7 0" in="shadowInnerInner1" type="matrix" result="shadowMatrixInner1"/><feMerge><feMergeNode in="SourceGraphic"/><feMergeNode in="shadowMatrixInner1"/></feMerge></filter></defs><g stroke="none" stroke-width="1" fill="none" fill-rule="evenodd" sketch:type="MSPage"><path d="M25.2136336,37.6537541 C32.607623,37.6537541 38.6016351,31.6597421 38.6016351,24.2657527 C38.6016351,16.8717633 32.607623,10.8777512 25.2136336,10.8777512 C17.8196442,10.8777512 11.8256322,16.8717633 11.8256322,24.2657527 C11.8256322,31.6597421 17.8196442,37.6537541 25.2136336,37.6537541 Z M25.2136336,34.3067538 C30.7591257,34.3067538 35.2546347,29.8112447 35.2546347,24.2657527 C35.2546347,18.7202606 30.7591257,14.2247516 25.2136336,14.2247516 C19.6681416,14.2247516 15.1726325,18.7202606 15.1726325,24.2657527 C15.1726325,29.8112447 19.6681416,34.3067538 25.2136336,34.3067538 Z M25.2136336,0 C23.5401334,6.94901618e-07 23.5401334,1.41603862 23.5401334,1.41603862 L23.5401334,7.7882124 C23.5401334,7.7882124 23.5401334,9.20425171 25.2136336,9.20425101 C26.8871338,9.20425101 26.8871338,7.7882124 26.8871338,7.7882124 L26.8871338,1.41603862 C26.8871338,1.41603862 26.8871338,-6.41121406e-07 25.2136336,0 Z M42.4506933,7.13982389 C41.2673495,5.95648105 40.2660595,6.95777107 40.2660595,6.95777107 L35.7602522,11.4635784 C35.7602522,11.4635784 34.7589612,12.4648694 35.942305,13.6482122 C37.1256483,14.8315555 38.1269388,13.830265 38.1269388,13.830265 L42.6327461,9.32445772 C42.6327461,9.32445772 43.6340371,8.32316676 42.4506933,7.13982389 Z M49.5905172,24.3768835 C49.5905165,22.7033834 48.1744786,22.7033834 48.1744786,22.7033834 L41.8023048,22.7033834 C41.8023048,22.7033834 40.3862655,22.7033834 40.3862662,24.3768835 C40.3862662,26.0503837 41.8023048,26.0503837 41.8023048,26.0503837 L48.1744786,26.0503837 C48.1744786,26.0503837 49.5905178,26.0503837 49.5905172,24.3768835 Z M42.4506933,41.6139432 C43.6340361,40.4305994 42.6327461,39.4293094 42.6327461,39.4293094 L38.1269388,34.9235021 C38.1269388,34.9235021 37.1256478,33.9222111 35.942305,35.1055549 C34.7589617,36.2888982 35.7602522,37.2901887 35.7602522,37.2901887 L40.2660595,41.795996 C40.2660595,41.795996 41.2673504,42.797287 42.4506933,41.6139432 Z M25.2136336,48.7537671 C26.8871338,48.7537664 26.8871338,47.3377285 26.8871338,47.3377285 L26.8871338,40.9655547 C26.8871338,40.9655547 26.8871338,39.5495154 25.2136336,39.5495161 C23.5401334,39.5495161 23.5401334,40.9655547 23.5401334,40.9655547 L23.5401334,47.3377285 C23.5401334,47.3377285 23.5401334,48.7537677 25.2136336,48.7537671 Z M7.97657398,41.6139432 C9.1599178,42.797286 10.1612078,41.795996 10.1612078,41.795996 L14.6670151,37.2901887 C14.6670151,37.2901887 15.6683061,36.2888977 14.4849623,35.1055549 C13.301619,33.9222116 12.3003284,34.9235021 12.3003284,34.9235021 L7.79452116,39.4293094 C7.79452116,39.4293094 6.7932302,40.4306003 7.97657398,41.6139432 Z M0.836750092,24.3768835 C0.836750787,26.0503837 2.25278871,26.0503837 2.25278871,26.0503837 L8.62496249,26.0503837 C8.62496249,26.0503837 10.0410018,26.0503837 10.0410011,24.3768835 C10.0410011,22.7033834 8.62496249,22.7033834 8.62496249,22.7033834 L2.25278871,22.7033834 C2.25278871,22.7033834 0.836749451,22.7033834 0.836750092,24.3768835 Z M7.97657398,7.13982389 C6.79323114,8.32316771 7.79452116,9.32445772 7.79452116,9.32445772 L12.3003284,13.830265 C12.3003284,13.830265 13.3016194,14.831556 14.4849623,13.6482122 C15.6683056,12.4648689 14.6670151,11.4635784 14.6670151,11.4635784 L10.1612078,6.95777107 C10.1612078,6.95777107 9.15991685,5.9564801 7.97657398,7.13982389 Z" fill="#000000" filter="url(#a)" sketch:type="MSShapeGroup"/></g><text x="0" y="64" fill="#000000" font-size="5px" font-weight="bold" font-family="'Helvetica Neue', Helvetica, Arial-Unicode, Arial, Sans-serif">Created by Pham Thi Dieu Linh</text><text x="0" y="69" fill="#000000" font-size="5px" font-weight="bold" font-family="'Helvetica Neue', Helvetica, Arial-Unicode, Arial, Sans-serif">from the Noun Project</text></svg>